:version 1.10
:name ASF
:units
  mass 1
  length 1
  angle deg
:documentation
  ASF file generated by Kaydara
:root
  axis xyz
  order  tx ty tz rx ry rz
  position 0 0 0
  orientation 0 0 0
:bonedata
  begin
    id 1
    name RightUpLegDummy
    direction -1 2.30186e-007 8.31532e-007
    length 4.04083
    axis 0 0 0 xyz
  end
  begin
    id 2
    name RightUpLeg
    direction -0.000919234 -0.999985 0.00544864
    length 17.4221
    axis -3.80308 -0.00076134 -0.0523649 xyz
    dof rx ry rz
  end
  begin
    id 3
    name RightLeg
    direction -0.000919271 -0.999984 -0.00555045
    length 17.1239
    axis 4.00314 0.0181274 -0.183583 xyz
    dof rx ry rz
  end
  begin
    id 4
    name RightFoot
    direction -2.57843e-005 -4.04509e-007 1
    length 6.72091
    axis 8.18909e-005 -0.122003 -0.403008 xyz
    dof rx ry rz
  end
  begin
    id 5
    name RightToes
    direction 0.00116825 -0.014069 0.9999
    length 3.85082
    axis 0.000514414 0.540638 -0.356797 xyz
    dof rx ry rz
  end
  begin
    id 6
    name SpineDummy
    direction 0.0168869 0.966876 -0.254689
    length 6.99894
    axis 0 0 0 xyz
  end
  begin
    id 7
    name Spine
    direction -0.0132008 0.999903 0.00446247
    length 11.1999
    axis -0.00148109 0.00725429 0.756411 xyz
    dof rx ry rz
  end
  begin
    id 8
    name Spine1
    direction 0 0 0
    length 0
    axis -0.000934958 0.0245693 1.46543 xyz
    dof rx ry rz
  end
  begin
    id 9
    name HEadDummy
    direction -0.0255732 0.999672 0.00128215
    length 3.43865
    axis -0.000934958 0.0245693 1.46543 xyz
  end
  begin
    id 10
    name HEad
    direction -0.0472656 0.980052 0.19304
    length 5.12695
    axis -0.000934954 0.0245693 1.46543 xyz
    dof rx ry rz
  end
  begin
    id 11
    name LeftShoulder1Dummy
    direction 0.953098 0.301717 -0.023914
    length 3.68488
    axis -0.000934958 0.0245693 1.46543 xyz
  end
  begin
    id 12
    name LeftShoulder1
    direction 0.962466 0.271167 0.0112566
    length 3.13809
    axis -0.000934958 0.0245693 1.46543 xyz
    dof rx ry rz
  end
  begin
    id 13
    name LeftArm
    direction 0.999943 0.00455037 -0.00961766
    length 11.3419
    axis -23.1648 0.685459 1.22814 xyz
    dof rx ry rz
  end
  begin
    id 14
    name LeftForeArm
    direction 0.999332 0.0131969 0.0340885
    length 8.70632
    axis -9.90633 0.618216 0.0826942 xyz
    dof rx ry rz
  end
  begin
    id 15
    name LeftHand
    direction 0.994373 -0.0366703 0.0993905
    length 5.32135
    axis 0.00675269 0.680415 0.445699 xyz
    dof rx ry rz
  end
  begin
    id 16
    name RightShoulderDummy
    direction -0.967298 0.252589 -0.0230903
    length 3.68488
    axis -0.000934958 0.0245693 1.46543 xyz
  end
  begin
    id 17
    name RightShoulder
    direction -0.975062 0.221602 0.0120823
    length 3.13809
    axis 0.216257 0.0246515 1.45863 xyz
    dof rx ry rz
  end
  begin
    id 18
    name RightArm
    direction -0.99886 -0.00851186 -0.0469687
    length 10.3947
    axis -23.196 0.23503 -0.532632 xyz
    dof rx ry rz
  end
  begin
    id 19
    name RightForeArm
    direction -0.99909 0.00114866 0.0426317
    length 8.68355
    axis -9.91764 -0.134943 0.610517 xyz
    dof rx ry rz
  end
  begin
    id 20
    name RightHand
    direction -0.992888 -0.0489538 0.10852
    length 5.28593
    axis -0.00275396 -0.197403 0.246414 xyz
    dof rx ry rz
  end
  begin
    id 21
    name LeftUpLegDummy
    direction 1 -2.30186e-007 -8.31532e-007
    length 4.04083
    axis 0 0 0 xyz
  end
  begin
    id 22
    name LeftUpLeg
    direction -0.000920097 -1 2.79241e-006
    length 17.4221
    axis -3.48782 0.00143434 -0.0532288 xyz
    dof rx ry rz
  end
  begin
    id 23
    name LeftLeg
    direction -0.000920097 -1 2.7912e-006
    length 17.1239
    axis 3.68162 -0.00806512 -0.0529896 xyz
    dof rx ry rz
  end
  begin
    id 24
    name LeftFoot
    direction -2.57845e-005 -3.987e-007 1
    length 6.72091
    axis 3.02372e-005 -0.00147829 -0.214229 xyz
    dof rx ry rz
  end
  begin
    id 25
    name LeftToes
    direction 0.00813577 -0.00488255 0.999955
    length 3.85048
    axis 3.89895e-005 -0.0014783 -0.214229 xyz
    dof rx ry rz
  end
:hierarchy
  begin
    root RightUpLegDummy SpineDummy LeftUpLegDummy
    RightUpLegDummy RightUpLeg
    RightUpLeg RightLeg
    RightLeg RightFoot
    RightFoot RightToes
    SpineDummy Spine
    Spine Spine1
    Spine1 HEadDummy LeftShoulder1Dummy RightShoulderDummy
    HEadDummy HEad
    LeftShoulder1Dummy LeftShoulder1
    LeftShoulder1 LeftArm
    LeftArm LeftForeArm
    LeftForeArm LeftHand
    RightShoulderDummy RightShoulder
    RightShoulder RightArm
    RightArm RightForeArm
    RightForeArm RightHand
    LeftUpLegDummy LeftUpLeg
    LeftUpLeg LeftLeg
    LeftLeg LeftFoot
    LeftFoot LeftToes
  end

:SAMPLES-PER-SECOND 30
:FULLY-SPECIFIED
:DEGREES
16
root  -54.017 34.7353 31.0107 -169.275 56.8822 -178.501
RightUpLeg  -8.52411 -13.7782 0.0540392
RightLeg  6.74391 -0.408434 -0.0207055
RightFoot  2.94766 0.0110293 0.10888
RightToes  -21.4549 -0.0906076 -0.193048
Spine  -2.68158 -0.375815 0.321394
Spine1  -5.44767 -0.688396 1.2054
HEad  -71.9508 -24.1923 6.81009
LeftShoulder1  -1.94126e-019 -3.10601e-018 -2.51263e-017
LeftArm  -9.77335 25.3874 -83.1122
LeftForeArm  33.2599 -17.5051 -2.91162
LeftHand  -0.330764 -0.921995 6.4386
RightShoulder  -4.96962e-017 0 -2.36833e-017
RightArm  -29.1895 -25.7712 78.0186
RightForeArm  55.8639 14.105 1.24639
RightHand  -0.324071 -1.09078 -8.67413
LeftUpLeg  -7.98919 5.65901 2.42689
LeftLeg  6.63712 14.7716 0.753222
LeftFoot  4.61215 -0.0472258 1.32156
LeftToes  -21.0289 1.48321e-006 1.01846e-007
17
root  -54.0106 34.7337 31.007 -169.273 56.8593 -178.512
RightUpLeg  -8.53217 -13.7907 0.0493906
RightLeg  6.76699 -0.422879 -0.0216473
RightFoot  2.92641 0.0110166 0.109062
RightToes  -21.4901 -0.0906076 -0.193048
Spine  -2.67758 -0.371343 0.308026
Spine1  -5.43954 -0.681802 1.17762
HEad  -71.9638 -24.2254 6.82421
LeftShoulder1  -1.94126e-019 -3.10601e-018 -2.51263e-017
LeftArm  -9.77929 25.3652 -83.0992
LeftForeArm  33.2784 -17.643 -2.93032
LeftHand  -0.33541 -0.909011 6.36006
RightShoulder  -4.96962e-017 0 -2.36833e-017
RightArm  -29.2499 -25.7835 78.0332
RightForeArm  55.9294 14.0548 1.25227
RightHand  -0.324649 -1.08747 -8.68353
LeftUpLeg  -8.00493 5.66193 2.42326
LeftLeg  6.65952 14.7392 0.757314
LeftFoot  4.60734 -0.0469513 1.31714
LeftToes  -21.0738 1.48321e-006 1.01846e-007
18
root  -54.0021 34.7318 31.0018 -169.251 56.8196 -178.512
RightUpLeg  -8.52999 -13.7998 0.0541734
RightLeg  6.76159 -0.453552 -0.0223769
RightFoot  2.92628 0.0110038 0.109245
RightToes  -21.5511 -0.0906076 -0.193048
Spine  -2.66835 -0.384007 0.294426
Spine1  -5.42125 -0.708247 1.14888
HEad  -71.9462 -24.2388 6.82399
LeftShoulder1  -1.94126e-019 -3.10601e-018 -2.51263e-017
LeftArm  -9.72932 25.3601 -83.0568
LeftForeArm  33.207 -17.7829 -2.95195
LeftHand  -0.338767 -0.887758 6.34473
RightShoulder  -4.96962e-017 0 -2.36833e-017
RightArm  -29.3933 -25.7438 78.077
RightForeArm  56.0534 13.9892 1.25946
RightHand  -0.325409 -1.06487 -8.70359
LeftUpLeg  -8.03039 5.61084 2.42844
LeftLeg  6.68937 14.7587 0.765914
LeftFoot  4.60043 -0.0469217 1.31662
LeftToes  -21.0991 1.48321e-006 1.01846e-007
19
root  -53.9974 34.7313 30.9977 -169.25 56.7852 -178.527
RightUpLeg  -8.52084 -13.834 0.0464868
RightLeg  6.74667 -0.443948 -0.0290139
RightFoot  2.90632 0.010991 0.109427
RightToes  -21.4946 -0.0906076 -0.193048
Spine  -2.65756 -0.391488 0.285596
Spine1  -5.39952 -0.72361 1.13132
HEad  -71.9891 -24.1889 6.82318
LeftShoulder1  -1.94126e-019 -3.10601e-018 -2.51263e-017
LeftArm  -9.68414 25.3516 -83.0413
LeftForeArm  33.1845 -17.8152 -2.9569
LeftHand  -0.340684 -0.888477 6.39801
RightShoulder  -4.96962e-017 0 -2.36833e-017
RightArm  -29.3838 -25.7259 78.0966
RightForeArm  55.993 14.0034 1.25837
RightHand  -0.327474 -1.10084 -8.6809
LeftUpLeg  -8.03709 5.62488 2.42095
LeftLeg  6.68165 14.73 0.76249
LeftFoot  4.5806 -0.0464312 1.30902
LeftToes  -20.9968 1.48321e-006 1.01846e-007
20
root  -53.9857 34.7315 30.9935 -169.205 56.7009 -178.513
RightUpLeg  -8.48706 -13.8839 0.0728779
RightLeg  6.6687 -0.491369 -0.0244913
RightFoot  2.92897 0.0109783 0.109609
RightToes  -21.5383 -0.0906076 -0.193048
Spine  -2.65247 -0.41984 0.272976
Spine1  -5.38943 -0.779508 1.10554
HEad  -71.9166 -24.0255 6.83081
LeftShoulder1  -1.94126e-019 -3.10601e-018 -2.51263e-017
LeftArm  -9.6215 25.3533 -82.9887
LeftForeArm  33.1743 -17.7857 -2.95658
LeftHand  -0.342779 -0.877221 6.40831
RightShoulder  -4.96962e-017 0 -2.36833e-017
RightArm  -29.4299 -25.6917 78.1492
RightForeArm  55.9579 14.0377 1.25424
RightHand  -0.33052 -1.11428 -8.62487
LeftUpLeg  -8.06376 5.55621 2.44116
LeftLeg  6.67967 14.7118 0.76106
LeftFoot  4.57064 -0.0461631 1.30495
LeftToes  -20.9468 1.48321e-006 1.01846e-007
21
root  -53.9759 34.7314 30.9886 -169.182 56.6253 -178.525
RightUpLeg  -8.44447 -13.9922 0.0811937
RightLeg  6.56752 -0.464269 -0.022261
RightFoot  2.95419 0.0109657 0.109788
RightToes  -21.5294 -0.0906076 -0.193048
Spine  -2.65115 -0.451344 0.2797
Spine1  -5.38679 -0.840554 1.11982
HEad  -71.919 -23.8942 6.7644
LeftShoulder1  -1.94126e-019 -3.10601e-018 -2.51263e-017
LeftArm  -9.73248 25.3378 -83.0295
LeftForeArm  33.317 -17.5518 -2.92075
LeftHand  -0.343786 -0.920241 6.45249
RightShoulder  -4.96962e-017 0 -2.36833e-017
RightArm  -29.3442 -25.6653 78.1251
RightForeArm  55.8647 14.1117 1.24551
RightHand  -0.331605 -1.11275 -8.64102
LeftUpLeg  -8.08329 5.47606 2.44247
LeftLeg  6.66111 14.6741 0.754441
LeftFoot  4.65225 -0.0473623 1.32375
LeftToes  -21.2443 1.48321e-006 1.01846e-007
22
root  -53.9639 34.7308 30.9838 -169.119 56.5535 -178.483
RightUpLeg  -8.39121 -14.0712 0.112163
RightLeg  6.46535 -0.433466 -0.01994
RightFoot  3.00156 0.0109534 0.109965
RightToes  -21.5851 -0.0906076 -0.193048
Spine  -2.64585 -0.475591 0.287485
Spine1  -5.37627 -0.887422 1.13367
HEad  -71.9078 -23.7813 6.75871
LeftShoulder1  -1.94126e-019 -3.10601e-018 -2.51263e-017
LeftArm  -9.69017 25.3164 -83.0262
LeftForeArm  33.3184 -17.3988 -2.90248
LeftHand  -0.344098 -0.889333 6.48739
RightShoulder  -4.96962e-017 0 -2.36833e-017
RightArm  -29.1732 -25.6353 78.0995
RightForeArm  55.7725 14.1685 1.23912
RightHand  -0.332361 -1.07021 -8.6613
LeftUpLeg  -8.10637 5.44518 2.47664
LeftLeg  6.66988 14.6821 0.757071
LeftFoot  4.60947 -0.046681 1.31338
LeftToes  -21.1341 1.48321e-006 1.01846e-007
23
root  -53.9581 34.7501 30.9762 -169.118 56.5396 -178.54
RightUpLeg  -8.18698 -14.1492 0.0874648
RightLeg  5.98201 -0.378336 -0.0140908
RightFoot  3.21159 0.0109414 0.110137
RightToes  -21.5904 -0.0906076 -0.193048
Spine  -2.58234 -0.409027 0.505417
Spine1  -5.24416 -0.752521 1.59635
HEad  -72.1659 -23.884 5.99907
LeftShoulder1  -1.94126e-019 -3.10601e-018 -2.51263e-017
LeftArm  -9.73958 24.8997 -83.7487
LeftForeArm  33.0549 -15.9137 -2.60585
LeftHand  -0.334609 -0.891277 6.30949
RightShoulder  -4.96962e-017 0 -2.36833e-017
RightArm  -29.6468 -25.2979 77.4644
RightForeArm  56.2225 14.0528 1.24858
RightHand  -0.330231 -1.05533 -8.77303
LeftUpLeg  -7.94947 5.32843 2.43871
LeftLeg  6.26482 14.7892 0.658907
LeftFoot  4.81689 -0.0512256 1.38429
LeftToes  -21.0764 1.48321e-006 1.01846e-007
24
root  -53.9506 34.7496 30.9765 -169.063 56.5025 -178.52
RightUpLeg  -8.18438 -14.2493 0.113854
RightLeg  5.92539 -0.306103 -0.0108952
RightFoot  3.23984 0.0109297 0.110303
RightToes  -21.6177 -0.0906076 -0.193048
Spine  -2.57536 -0.41336 0.510524
Spine1  -5.23031 -0.759755 1.60455
HEad  -72.2478 -23.8273 6.07726
LeftShoulder1  -1.94126e-019 -3.10601e-018 -2.51263e-017
LeftArm  -9.77251 24.8897 -83.7476
LeftForeArm  33.1332 -15.8327 -2.59362
LeftHand  -0.335798 -0.915729 6.30908
RightShoulder  -4.96962e-017 0 -2.36833e-017
RightArm  -29.7929 -25.2048 77.461
RightForeArm  56.3611 14.0125 1.2522
RightHand  -0.327742 -1.00483 -8.85447
LeftUpLeg  -7.99141 5.39467 2.45919
LeftLeg  6.27711 14.6948 0.657913
LeftFoot  4.80016 -0.0503904 1.37162
LeftToes  -21.1092 1.48321e-006 1.01846e-007
25
root  -53.9414 34.7281 30.9889 -168.964 56.4257 -178.427
RightUpLeg  -8.3853 -14.2348 0.204866
RightLeg  6.31258 -0.402292 -0.0173584
RightFoot  3.03065 0.0109185 0.110464
RightToes  -21.5117 -0.0906076 -0.193048
Spine  -2.63318 -0.492357 0.287274
Spine1  -5.35204 -0.915637 1.12576
HEad  -71.948 -23.701 6.85051
LeftShoulder1  -1.94126e-019 -3.10601e-018 -2.51263e-017
LeftArm  -9.63611 25.3457 -82.9455
LeftForeArm  33.2743 -17.2822 -2.88628
LeftHand  -0.346421 -0.928341 6.49349
RightShoulder  -4.96962e-017 0 -2.36833e-017
RightArm  -29.1779 -25.4782 78.122
RightForeArm  55.7147 14.2208 1.23294
RightHand  -0.331537 -1.0614 -8.65162
LeftUpLeg  -8.23433 5.33449 2.5463
LeftLeg  6.72626 14.6775 0.771156
LeftFoot  4.56383 -0.0458449 1.30131
LeftToes  -21.04 1.48321e-006 1.01846e-007
26
root  -53.9367 34.7282 30.9884 -168.963 56.4521 -178.442
RightUpLeg  -8.38062 -14.2511 0.19927
RightLeg  6.28243 -0.360095 -0.0152344
RightFoot  3.03803 0.0109078 0.110616
RightToes  -21.548 -0.0906076 -0.193048
Spine  -2.63153 -0.474762 0.276952
Spine1  -5.34881 -0.879729 1.10476
HEad  -71.9668 -23.632 6.93473
LeftShoulder1  -1.94126e-019 -3.10601e-018 -2.51263e-017
LeftArm  -9.69344 25.3686 -82.919
LeftForeArm  33.347 -17.2725 -2.88318
LeftHand  -0.346594 -0.929843 6.49526
RightShoulder  -4.96962e-017 0 -2.36833e-017
RightArm  -29.1668 -25.4331 78.1447
RightForeArm  55.721 14.1896 1.23702
RightHand  -0.329614 -1.06805 -8.67035
LeftUpLeg  -8.2301 5.37547 2.53854
LeftLeg  6.70903 14.6601 0.76589
LeftFoot  4.5909 -0.046203 1.30725
LeftToes  -21.172 1.48321e-006 1.01846e-007
